<svg width="129" height="124" viewBox="0 0 129 124" fill="none" xmlns="http://www.w3.org/2000/svg">
<path d="M47.5437 23.4615C45.4837 22.5715 44.5237 20.1515 45.4137 18.0815C46.3037 16.0215 48.7237 15.0615 50.7837 15.9515C52.8437 16.8415 53.8037 19.2615 52.9137 21.3315C52.0337 23.3915 49.6137 24.3515 47.5437 23.4615Z" stroke="#CC767D" stroke-width="1.4224" stroke-miterlimit="10"/>
<path d="M75.4536 35.0004C73.3936 34.1104 72.4336 31.6904 73.3236 29.6304C74.2136 27.5704 76.6336 26.6104 78.6936 27.5004C80.7536 28.3904 81.7136 30.8104 80.8236 32.8804C79.9336 34.9304 77.5136 35.8904 75.4536 35.0004Z" stroke="#CC767D" stroke-width="1.4224" stroke-miterlimit="10"/>
<path fill-rule="evenodd" clip-rule="evenodd" d="M36.1936 18.0013C33.9636 18.3113 25.4536 32.8313 19.9236 41.8213C14.3936 50.8213 5.16363 69.3013 5.83363 71.8313C6.50363 74.3613 23.8636 82.4613 40.3036 89.1413C56.7536 95.8313 73.9636 101.411 75.0736 99.5713C76.1836 97.7313 80.4336 76.2713 82.6136 66.9513C84.7936 57.6313 87.6036 41.1513 87.1836 39.5013C86.7736 37.8513 70.1136 31.5713 62.7636 28.4513C55.4136 25.3513 38.4236 17.6913 36.1936 18.0013Z" fill="#FF2636"/>
<path fill-rule="evenodd" clip-rule="evenodd" d="M30.7537 24.3308C30.7537 24.3308 41.1937 28.2508 42.4237 29.6108C43.6537 30.9708 42.8937 33.0008 41.3137 36.4808C39.7237 39.9608 37.8837 41.4708 41.8137 43.2708C45.7437 45.0708 65.5837 54.2708 67.3537 54.5608C69.1237 54.8508 71.0337 52.2708 71.6337 50.1908C72.2337 48.1108 73.1537 42.7608 74.8737 43.2008C76.5937 43.6408 86.4337 48.5208 86.4337 48.5208C86.4337 48.5208 87.3337 41.0408 87.1937 39.3608C87.0437 37.6808 75.2437 32.9608 69.2637 30.5108C63.2837 28.0708 38.0437 17.8108 36.4737 17.3108C34.8937 16.8208 33.2537 19.9108 30.7537 24.3308Z" fill="#991720"/>
<path fill-rule="evenodd" clip-rule="evenodd" d="M39.4536 37.0707L41.2336 32.7207L74.2136 46.4607L72.2336 51.0207L39.4536 37.0707Z" fill="#1943B0"/>
<path fill-rule="evenodd" clip-rule="evenodd" d="M50.6335 41.8202L52.6835 37.4902L64.4635 41.9102L62.4135 46.5802L50.6335 41.8202Z" fill="#F2D2D5"/>
<path fill-rule="evenodd" clip-rule="evenodd" d="M47.2336 17.1309C47.2336 17.1309 54.9836 -6.25908 73.8936 1.65092C92.8136 9.55092 79.9336 30.4009 79.9336 30.4009L75.4936 28.4809C75.4936 28.4809 84.6036 13.0109 71.6236 7.16092C57.7536 0.910919 52.2536 18.7909 52.2536 18.7909L47.2336 17.1309Z" fill="#FF2636"/>
<path d="M84.7636 47.7108C78.7836 47.3508 76.8935 55.4508 77.7135 60.1108C78.8835 66.7508 84.0236 72.5408 89.8036 75.5508C89.9036 75.6208 90.0236 75.6908 90.1636 75.7408C90.3036 75.8108 90.4536 75.8508 90.5836 75.8808C97.4136 78.0508 98.1436 68.0308 97.1936 63.3408C95.8236 56.5308 93.0936 48.2208 84.7636 47.7108ZM92.5936 58.3908C93.0836 59.9908 96.7136 74.8708 91.5236 72.9108C84.9536 69.6408 78.2636 61.0708 81.6136 53.3508C84.4735 46.7208 91.4836 54.7308 92.5936 58.3908Z" fill="#00BFA2"/>
<path d="M96.6937 58.7102C93.7837 58.1202 89.3937 56.4202 86.4137 57.4402C84.2037 58.2002 82.7837 60.4502 81.3637 62.1602C78.6837 65.4002 75.8037 68.5502 73.2937 71.9202C70.7137 75.3802 70.8337 78.1502 72.0937 82.0502C74.5137 89.5402 77.3437 96.9202 79.9537 104.34C81.7837 109.52 83.1136 115.44 85.6036 120.35C89.0436 127.14 96.5637 122.67 101.814 120.82C108.114 118.6 115.324 116.99 121.284 113.95C126.114 111.49 125.824 107.24 124.394 102.84C121.644 94.3702 118.464 86.0202 115.494 77.6202C113.644 72.3802 112.324 62.9802 106.554 60.7202C103.274 60.0502 99.9837 59.3802 96.6937 58.7102ZM93.6137 78.1002C91.3737 78.7902 88.9237 78.1702 87.4537 76.2802C85.4437 73.6902 86.6937 70.4202 89.6837 69.3802C91.8737 68.6102 94.4237 69.3602 95.8437 71.2002C97.9137 73.8902 96.5337 76.9302 93.6137 78.1002Z" fill="#1943B0"/>
<path d="M95.9937 58.5511C94.8837 58.2911 93.6137 57.9211 92.3037 57.6211C92.4237 57.8911 92.5237 58.1511 92.5937 58.3811C92.9037 59.4011 94.4937 65.8311 94.2537 69.8311C94.8537 70.1811 95.3937 70.6211 95.8337 71.1811C96.2137 71.6711 96.4737 72.1711 96.6337 72.6711C97.7337 69.8011 97.7037 65.8211 97.2037 63.3311C96.8837 61.7911 96.4937 60.1511 95.9937 58.5511Z" fill="#008F79"/>
<path d="M98.1637 93.5703C97.9537 89.6703 94.4037 87.6503 90.7737 88.5203C87.3537 89.3303 85.4437 92.0903 85.7837 95.5403C87.3337 102.92 98.5537 100.79 98.1637 93.5703ZM94.7337 94.1103C95.1337 95.9203 93.1537 96.7903 91.6637 96.5103C90.3537 96.2603 89.3837 95.2203 89.1137 93.9403C88.7637 90.7203 94.1537 91.4903 94.7337 94.1103Z" fill="white"/>
<path d="M114.294 101.33C114.084 97.4301 110.534 95.4101 106.904 96.2801C103.484 97.0901 101.574 99.8501 101.914 103.3C103.464 110.68 114.694 108.55 114.294 101.33ZM110.864 101.86C111.264 103.67 109.284 104.54 107.794 104.26C106.484 104.01 105.514 102.97 105.244 101.69C104.894 98.4801 110.294 99.2501 110.864 101.86Z" fill="white"/>
<path d="M105.584 86.3205C104.714 86.4605 103.844 86.6005 102.974 86.7405C102.874 86.7605 102.784 86.8105 102.694 86.8805C102.534 86.9705 102.374 87.1405 102.264 87.4305C100.754 91.3705 99.2437 95.3105 97.7337 99.2505C96.9837 101.221 96.2237 103.191 95.4737 105.161C95.0937 106.141 94.7237 107.131 94.3437 108.111C94.0137 108.981 93.4137 109.681 94.2837 110.361C94.4237 110.471 94.5737 110.571 94.7537 110.641C95.0137 110.731 95.3037 110.731 95.5837 110.701C98.7237 110.311 99.1037 105.321 99.9837 103.001C101.964 97.8105 103.954 92.6205 105.934 87.4205C106.024 87.1705 106.144 86.2305 105.584 86.3205Z" fill="white"/>
<path d="M128.334 36.4411C128.304 38.8711 125.854 39.8611 124.124 40.7711C123.064 41.3111 121.614 42.0611 120.894 43.0611C120.024 44.2511 120.264 45.5411 119.624 46.7811C119.184 47.6411 118.424 48.6011 117.474 48.9311C115.604 49.5811 114.154 48.2511 113.614 46.4911C112.984 44.4311 113.104 42.3411 110.944 41.1111C109.794 40.4611 108.224 40.5311 107.054 39.8211C104.554 38.3011 105.324 35.8411 107.474 34.3411C107.494 34.3411 107.494 34.3211 107.494 34.3211C107.654 34.1311 107.914 33.9511 108.334 33.8811C113.204 32.9611 112.294 29.4611 114.704 26.7411C116.504 24.6811 118.124 25.3411 118.984 27.3911C120.344 30.6411 122.474 31.5811 125.394 33.2211C126.724 33.9811 128.364 34.6611 128.334 36.4411Z" fill="#33F2D5"/>
<path d="M101.683 15.2316C101.663 16.5316 100.363 17.0616 99.4335 17.5416C98.8635 17.8316 98.0935 18.2316 97.7035 18.7616C97.2335 19.3916 97.3635 20.0816 97.0235 20.7516C96.7935 21.2116 96.3835 21.7216 95.8735 21.9016C94.8735 22.2516 94.1035 21.5416 93.8135 20.5916C93.4735 19.4916 93.5435 18.3716 92.3835 17.7216C91.7635 17.3716 90.9235 17.4116 90.3035 17.0316C88.9735 16.2216 89.3835 14.9016 90.5235 14.1016C90.5335 14.1016 90.5335 14.0916 90.5335 14.0916C90.6135 13.9916 90.7535 13.8916 90.9835 13.8616C93.5835 13.3716 93.1035 11.5016 94.3935 10.0416C95.3535 8.94163 96.2235 9.29164 96.6835 10.3916C97.4135 12.1316 98.5535 12.6316 100.103 13.5116C100.833 13.9116 101.703 14.2816 101.683 15.2316Z" fill="#33F2D5"/>
<path d="M51.2035 110.792C51.1835 112.402 49.5635 113.062 48.4135 113.662C47.7035 114.022 46.7435 114.522 46.2735 115.172C45.6935 115.962 45.8535 116.812 45.4335 117.632C45.1435 118.202 44.6335 118.832 44.0135 119.052C42.7735 119.482 41.8135 118.602 41.4535 117.432C41.0335 116.072 41.1135 114.682 39.6835 113.872C38.9235 113.442 37.8835 113.492 37.1035 113.012C35.4535 112.002 35.9635 110.372 37.3835 109.382C37.3935 109.382 37.3935 109.372 37.3935 109.372C37.4935 109.242 37.6735 109.132 37.9435 109.082C41.1735 108.472 40.5635 106.152 42.1635 104.352C43.3535 102.992 44.4335 103.422 44.9935 104.782C45.8935 106.932 47.3035 107.562 49.2335 108.642C50.1335 109.162 51.2235 109.612 51.2035 110.792Z" fill="#33F2D5"/>
<path d="M28.8436 84.6112C28.8036 87.6112 25.7836 88.8412 23.6436 89.9612C22.3236 90.6312 20.5336 91.5612 19.6536 92.7912C18.5736 94.2612 18.8736 95.8512 18.0736 97.3912C17.5336 98.4512 16.5836 99.6312 15.4236 100.041C13.1136 100.841 11.3236 99.2012 10.6536 97.0212C9.87355 94.4712 10.0236 91.8812 7.35355 90.3712C5.93355 89.5712 3.98355 89.6612 2.54355 88.7712C-0.546448 86.9012 0.403552 83.8612 3.05355 82.0012C3.07355 82.0012 3.07355 81.9812 3.07355 81.9812C3.26355 81.7412 3.59355 81.5312 4.11355 81.4412C10.1336 80.3012 9.01355 75.9812 11.9936 72.6112C14.2136 70.0612 16.2236 70.8812 17.2836 73.4112C18.9636 77.4212 21.6036 78.5912 25.2036 80.6212C26.8636 81.5712 28.8936 82.4112 28.8436 84.6112Z" fill="#33F2D5"/>
</svg>
